<svg width="136" height="136" viewBox="0 0 136 136" fill="none" xmlns="http://www.w3.org/2000/svg">
<rect width="136" height="136" fill="url(#paint0_linear_5490_6672)"/>
<path d="M12 82.1284L19.1953 66.472H21.9713L29.1666 82.1284H25.7022L24.2365 78.7307H16.9301L15.4866 82.1284H12ZM20.55 70.1363L18.0849 76.0435H23.1039L20.5944 70.1363H20.55Z" fill="white"/>
<path d="M34.3643 82.3727C33.4167 82.3727 32.5802 82.1432 31.8548 81.6843C31.1441 81.2105 30.5889 80.5517 30.1892 79.7078C29.7895 78.8491 29.5896 77.8349 29.5896 76.6653C29.5896 75.4957 29.7895 74.489 30.1892 73.6451C30.5889 72.8012 31.1441 72.1498 31.8548 71.6908C32.5802 71.2318 33.4167 71.0024 34.3643 71.0024C35.0897 71.0024 35.7559 71.1578 36.363 71.4687C36.97 71.7796 37.4289 72.1942 37.7398 72.7124V66.472H41.0932V82.1284H37.8065V80.4851C37.5104 81.0625 37.0514 81.5214 36.4296 81.862C35.8226 82.2025 35.1341 82.3727 34.3643 82.3727ZM35.3636 79.8633C36.0743 79.8633 36.6517 79.6042 37.0958 79.086C37.5548 78.5678 37.7843 77.7609 37.7843 76.6653C37.7843 75.5846 37.5548 74.7925 37.0958 74.2891C36.6517 73.7709 36.0743 73.5118 35.3636 73.5118C34.653 73.5118 34.0756 73.7709 33.6314 74.2891C33.1872 74.7925 32.9652 75.5846 32.9652 76.6653C32.9652 77.7609 33.1872 78.5678 33.6314 79.086C34.0756 79.6042 34.653 79.8633 35.3636 79.8633Z" fill="white"/>
<path d="M47.3636 82.3727C46.5493 82.3727 45.8313 82.2173 45.2095 81.9064C44.5876 81.5955 44.0917 81.1735 43.7215 80.6405C43.3662 80.1075 43.1886 79.5079 43.1886 78.8417C43.1886 78.057 43.3958 77.4278 43.8104 76.954C44.2249 76.4803 44.8986 76.1472 45.8313 75.9547C46.764 75.7474 48.0002 75.6438 49.54 75.6438H50.3395V75.2662C50.3395 74.6148 50.1914 74.1559 49.8953 73.8894C49.5992 73.6081 49.0958 73.4674 48.3852 73.4674C47.793 73.4674 47.1637 73.5637 46.4975 73.7561C45.8461 73.9338 45.1947 74.2077 44.5432 74.5778L43.6327 72.3348C44.0176 72.0831 44.484 71.8537 45.0318 71.6464C45.5944 71.4391 46.1792 71.2837 46.7862 71.18C47.3932 71.0616 47.9706 71.0024 48.5184 71.0024C50.2062 71.0024 51.4646 71.3873 52.2937 72.1572C53.1228 72.9122 53.5374 74.0892 53.5374 75.6882V82.1284H50.4061V80.4851C50.184 81.0625 49.8065 81.5214 49.2735 81.862C48.7553 82.2025 48.1187 82.3727 47.3636 82.3727ZM48.1187 80.1297C48.7405 80.1297 49.2661 79.9151 49.6954 79.4857C50.1248 79.0564 50.3395 78.5012 50.3395 77.8201V77.376H49.5622C48.4222 77.376 47.6153 77.4796 47.1415 77.6869C46.6678 77.8794 46.4309 78.2199 46.4309 78.7084C46.4309 79.123 46.5715 79.4635 46.8528 79.73C47.1489 79.9965 47.5709 80.1297 48.1187 80.1297Z" fill="white"/>
<path d="M56.0389 86.1258V71.2244H59.3256V72.8456C59.6217 72.283 60.0733 71.8388 60.6803 71.5131C61.3021 71.1726 61.998 71.0024 62.7678 71.0024C63.7154 71.0024 64.5444 71.2318 65.2551 71.6908C65.9805 72.1498 66.5431 72.8012 66.9429 73.6451C67.3426 74.489 67.5425 75.4957 67.5425 76.6653C67.5425 77.8349 67.3426 78.8491 66.9429 79.7078C66.5431 80.5517 65.9805 81.2105 65.2551 81.6843C64.5444 82.1432 63.7154 82.3727 62.7678 82.3727C62.0424 82.3727 61.3761 82.2173 60.7691 81.9064C60.1769 81.5955 59.718 81.1809 59.3922 80.6627V86.1258H56.0389ZM61.7685 79.8633C62.4791 79.8633 63.0565 79.6042 63.5007 79.086C63.9448 78.5678 64.1669 77.7609 64.1669 76.6653C64.1669 75.5846 63.9448 74.7925 63.5007 74.2891C63.0565 73.7709 62.4791 73.5118 61.7685 73.5118C61.043 73.5118 60.4582 73.7709 60.0141 74.2891C59.5699 74.7925 59.3478 75.5846 59.3478 76.6653C59.3478 77.7609 59.5699 78.5678 60.0141 79.086C60.4582 79.6042 61.043 79.8633 61.7685 79.8633Z" fill="white"/>
<path d="M74.837 82.3727C71.7724 82.3727 70.24 80.8848 70.24 77.909V73.7339H68.1747V71.2244H70.24V68.0265H73.5934V71.2244H76.8135V73.7339H73.5934V77.7757C73.5934 78.3975 73.7341 78.8639 74.0154 79.1748C74.3115 79.4857 74.7778 79.6412 75.4144 79.6412C75.6069 79.6412 75.8068 79.619 76.0141 79.5746C76.2361 79.5301 76.473 79.4709 76.7247 79.3969L77.2133 81.8397C76.9024 82.0026 76.5322 82.1284 76.1029 82.2173C75.6735 82.3209 75.2516 82.3727 74.837 82.3727Z" fill="white"/>
<path d="M78.3303 69.1147V65.9834H81.9501V69.1147H78.3303ZM78.4635 82.1284V71.2244H81.8169V82.1284H78.4635Z" fill="white"/>
<path d="M85.2497 82.1284V73.7339H83.1844V71.2244H85.2497C85.2793 69.6847 85.7235 68.5299 86.5822 67.76C87.4557 66.9753 88.7808 66.5312 90.5574 66.4276L91.7788 66.3387L91.9787 68.7816L90.9349 68.8482C90.0762 68.8926 89.4692 69.0777 89.1139 69.4034C88.7733 69.7143 88.6031 70.1955 88.6031 70.8469V71.2244H91.4457V73.7339H88.6031V82.1284H85.2497Z" fill="white"/>
<path d="M93.4692 86.1258L95.5567 81.5288L91.0707 71.2244H94.6018L97.3333 78.1533L100.154 71.2244H103.485L96.8892 86.1258H93.4692Z" fill="white"/>
<path fill-rule="evenodd" clip-rule="evenodd" d="M102.871 67.9564C102.652 67.9349 102.434 67.9046 102.217 67.8656C102.058 67.8371 101.909 67.7672 101.786 67.6629C101.662 67.5587 101.568 67.4237 101.514 67.2716C101.459 67.1196 101.445 66.9558 101.474 66.7967C101.503 66.6377 101.573 66.489 101.677 66.3657C102.18 65.7725 102.524 65.0609 102.676 64.298C102.704 64.1569 102.649 63.9092 102.364 63.632C100.341 61.6636 99.0847 58.9937 99.0847 56.038C99.0847 49.869 104.515 45.0001 111.042 45.0001C117.569 45.0001 123 49.869 123 56.038C123 62.2069 117.569 67.0758 111.042 67.0758C110.021 67.0758 109.027 66.9569 108.078 66.7336C106.526 67.7088 104.694 68.139 102.871 67.9564Z" fill="white"/>
<path d="M120.286 56.3049C120.286 57.0336 120.146 57.6513 119.865 58.158C119.585 58.6647 119.206 59.0495 118.727 59.3126C118.251 59.5756 117.716 59.7071 117.123 59.7071C116.528 59.7071 115.992 59.5745 115.516 59.3093C115.039 59.0441 114.661 58.6593 114.38 58.1548C114.102 57.6481 113.963 57.0314 113.963 56.3049C113.963 55.5761 114.102 54.9584 114.38 54.4517C114.661 53.945 115.039 53.5602 115.516 53.2971C115.992 53.0341 116.528 52.9026 117.123 52.9026C117.716 52.9026 118.251 53.0341 118.727 53.2971C119.206 53.5602 119.585 53.945 119.865 54.4517C120.146 54.9584 120.286 55.5761 120.286 56.3049ZM118.649 56.3049C118.649 55.8736 118.588 55.5093 118.465 55.2117C118.344 54.9142 118.17 54.6889 117.941 54.5358C117.715 54.3827 117.442 54.3062 117.123 54.3062C116.806 54.3062 116.533 54.3827 116.305 54.5358C116.076 54.6889 115.9 54.9142 115.778 55.2117C115.657 55.5093 115.596 55.8736 115.596 56.3049C115.596 56.7361 115.657 57.1004 115.778 57.398C115.9 57.6955 116.076 57.9208 116.305 58.0739C116.533 58.227 116.806 58.3035 117.123 58.3035C117.442 58.3035 117.715 58.227 117.941 58.0739C118.17 57.9208 118.344 57.6955 118.465 57.398C118.588 57.1004 118.649 56.7361 118.649 56.3049Z" fill="#5A58A4"/>
<path d="M108.413 59.6161V52.9927H113.032V54.2928H110.014V55.6511H112.795V56.9544H110.014V58.316H113.032V59.6161H108.413Z" fill="#5A58A4"/>
<path d="M105.982 54.9788C105.96 54.7416 105.864 54.5572 105.694 54.4257C105.526 54.292 105.285 54.2252 104.973 54.2252C104.766 54.2252 104.593 54.2522 104.455 54.3061C104.317 54.36 104.214 54.4343 104.145 54.5292C104.076 54.6219 104.04 54.7287 104.038 54.8494C104.034 54.9486 104.053 55.0359 104.096 55.1114C104.142 55.1868 104.206 55.2537 104.29 55.3119C104.377 55.3679 104.48 55.4175 104.601 55.4606C104.722 55.5038 104.857 55.5415 105.008 55.5738L105.578 55.7032C105.905 55.7743 106.194 55.8692 106.444 55.9878C106.697 56.1064 106.908 56.2476 107.078 56.4115C107.251 56.5753 107.381 56.764 107.469 56.9774C107.558 57.1909 107.603 57.4302 107.605 57.6954C107.603 58.1137 107.497 58.4727 107.288 58.7723C107.079 59.072 106.778 59.3017 106.386 59.4612C105.996 59.6208 105.525 59.7005 104.973 59.7005C104.419 59.7005 103.936 59.6175 103.524 59.4515C103.112 59.2855 102.792 59.0332 102.563 58.6947C102.335 58.3562 102.217 57.9283 102.211 57.4108H103.744C103.757 57.6242 103.814 57.8021 103.915 57.9444C104.017 58.0867 104.156 58.1945 104.332 58.2678C104.511 58.3411 104.718 58.3778 104.953 58.3778C105.169 58.3778 105.352 58.3487 105.503 58.2905C105.656 58.2323 105.774 58.1514 105.856 58.0479C105.938 57.9444 105.98 57.8258 105.982 57.6922C105.98 57.5671 105.941 57.4604 105.865 57.372C105.79 57.2814 105.673 57.2038 105.516 57.1391C105.361 57.0723 105.162 57.0108 104.921 56.9548L104.229 56.7931C103.655 56.6616 103.204 56.4492 102.874 56.156C102.544 55.8606 102.38 55.4617 102.382 54.9594C102.38 54.5497 102.49 54.1907 102.712 53.8824C102.934 53.5741 103.241 53.3337 103.634 53.1612C104.026 52.9887 104.474 52.9025 104.976 52.9025C105.489 52.9025 105.934 52.9898 106.312 53.1644C106.691 53.3369 106.985 53.5795 107.195 53.8921C107.404 54.2047 107.51 54.5669 107.515 54.9788H105.982Z" fill="#5A58A4"/>
<defs>
<linearGradient id="paint0_linear_5490_6672" x1="13" y1="5" x2="139.5" y2="139.5" gradientUnits="userSpaceOnUse">
<stop stop-color="#7B7ACC"/>
<stop offset="1" stop-color="#5251A6"/>
</linearGradient>
</defs>
</svg>
